<?xml version="1.0" encoding="utf-8"?>
<!-- Generator: Adobe Illustrator 23.0.1, SVG Export Plug-In . SVG Version: 6.00 Build 0)  -->
<svg version="1.1" xmlns="http://www.w3.org/2000/svg" xmlns:xlink="http://www.w3.org/1999/xlink" x="0px" y="0px"
	 viewBox="0 0 837.18 837.18" style="enable-background:new 0 0 837.18 837.18;" xml:space="preserve">
<style type="text/css">
	.st0{display:none;fill:#545EDD;}
	.st1{fill:none;stroke:#FFFFFF;stroke-width:18;stroke-linecap:round;stroke-miterlimit:10;}
	.st2{fill:#FFFFFF;}
	.st3{fill:#FFFFFF;stroke:#FFFFFF;stroke-linecap:round;stroke-miterlimit:10;}
	.st4{fill:none;stroke:#FFFFFF;stroke-width:3;stroke-linecap:round;stroke-miterlimit:10;}
	.st5{fill:#FFFFFF;stroke:#FFFFFF;stroke-miterlimit:10;}
	.st6{fill:none;stroke:#FFFFFF;stroke-miterlimit:10;}
	.st7{fill:none;}
	.st8{font-family:'BerlinSansFBDemi-Bold';}
	.st9{font-size:39px;}
	.st10{font-size:47px;}
</style>
<g id="Layer_2">
	<rect x="178.85" y="190.59" class="st0" width="464.47" height="447.53"/>
	<path class="st1" d="M340.26,602.12c0,0-74.94-33.18-100-117.53"/>
	<g>
		<path class="st2" d="M235.95,483.41c-0.72-2.57-1.23-4.88-1.74-7.32c-0.5-2.41-0.94-4.81-1.33-7.22
			c-0.81-4.82-1.35-9.66-1.81-14.51c-0.83-9.7-1.02-19.45-0.53-29.17c0.49-9.72,1.64-19.41,3.47-28.97
			c1.9-9.55,4.5-18.96,7.74-28.15l2.58-6.83c0.89-2.27,1.93-4.47,2.89-6.71l1.47-3.34l1.65-3.26c1.11-2.16,2.17-4.36,3.33-6.5
			c2.47-4.19,4.76-8.5,7.54-12.49c1.36-2.02,2.63-4.09,4.06-6.06l4.36-5.85c0.74-0.96,1.43-1.97,2.21-2.9l2.35-2.79l4.69-5.57
			l5-5.29c1.69-1.74,3.28-3.58,5.1-5.19l5.31-4.97c0.89-0.82,1.75-1.68,2.67-2.47l2.79-2.33l5.58-4.65l1.4-1.16l1.46-1.08l2.92-2.16
			l5.83-4.31c1.95-1.42,4.02-2.68,6.02-4.03l6.06-3.98c2.03-1.33,4.18-2.55,6.33-3.73c4.31-2.34,8.79-4.42,13.36-6.15l6.8-2.47
			l3.4-1.24l3.45-1.1l6.91-2.17c2.32-0.66,4.67-1.25,7-1.88l3.5-0.93c1.18-0.28,2.36-0.52,3.54-0.78l7.09-1.51
			c9.52-1.74,19.14-2.88,28.82-3.33c19.35-0.75,38.86,1.55,57.4,7.16c18.54,5.6,36.06,14.35,51.82,25.46
			c7.92,5.49,15.37,11.67,22.56,17.93l2.72,2.32c0.94,0.81,1.84,1.63,2.72,2.46c1.77,1.67,3.48,3.38,5.15,5.12
			c3.34,3.49,6.5,7.14,9.53,10.89c12.06,15.04,21.9,31.82,29.03,49.7c7.15,17.86,11.62,36.78,13.24,55.92
			c1.63,19.13,0.67,38.49-3.16,57.3c-3.86,18.8-10.71,36.98-20.35,53.56c-1.25,2.04-2.43,4.13-3.74,6.14l-3.99,5.98l-4.27,5.78
			c-0.69,0.98-1.47,1.89-2.22,2.82l-2.27,2.78c-6.15,7.34-12.87,14.19-20.06,20.5c-7.26,6.24-14.96,11.93-22.97,17.15
			c-4.08,2.48-8.11,5.06-12.34,7.28c-4.14,2.39-8.47,4.42-12.74,6.55c-17.29,8.12-35.47,14.22-53.98,18.79
			c18.47-4.75,36.57-11.02,53.74-19.3c4.24-2.17,8.53-4.24,12.64-6.66c4.19-2.26,8.18-4.86,12.22-7.38
			c7.93-5.27,15.53-11.01,22.68-17.28c7.09-6.34,13.69-13.21,19.72-20.55l2.23-2.78c0.74-0.93,1.5-1.84,2.18-2.82l4.17-5.77
			l3.89-5.96c1.28-2,2.42-4.08,3.64-6.12c9.38-16.5,15.97-34.54,19.6-53.15c3.6-18.62,4.35-37.75,2.56-56.61
			c-1.78-18.86-6.36-37.43-13.56-54.91c-7.17-17.49-17.01-33.88-28.96-48.49c-3-3.64-6.13-7.17-9.41-10.54
			c-1.64-1.68-3.32-3.33-5.04-4.92c-0.86-0.79-1.73-1.57-2.61-2.31l-2.74-2.3c-7.25-6.19-14.57-12.13-22.39-17.44
			c-15.52-10.71-32.66-19.04-50.7-24.3c-18.04-5.26-36.95-7.31-55.71-6.4c-9.38,0.52-18.71,1.73-27.95,3.51l-6.88,1.54
			c-1.15,0.26-2.3,0.5-3.44,0.79l-3.4,0.94c-2.27,0.63-4.54,1.23-6.8,1.89l-6.72,2.18l-3.36,1.1l-3.31,1.24l-6.62,2.48
			c-4.33,1.69-8.5,3.68-12.55,5.93c-2.02,1.14-4.01,2.29-5.96,3.59l-5.86,3.94c-1.94,1.33-3.94,2.58-5.83,3.98l-5.63,4.25
			l-2.81,2.12l-1.41,1.06l-1.34,1.14l-5.37,4.56l-2.68,2.28c-0.88,0.77-1.7,1.61-2.56,2.41l-5.09,4.86
			c-1.74,1.57-3.26,3.37-4.88,5.06l-4.78,5.15l-4.47,5.42l-2.24,2.71c-0.74,0.9-1.39,1.88-2.09,2.81l-4.14,5.66
			c-1.36,1.9-2.56,3.91-3.84,5.86c-2.64,3.86-4.79,8.02-7.12,12.06c-1.1,2.06-2.08,4.18-3.13,6.26l-1.55,3.14l-1.38,3.22
			c-0.9,2.15-1.88,4.27-2.71,6.45l-2.41,6.57c-3.01,8.83-5.42,17.87-7.15,27.05c-1.67,9.19-2.68,18.5-3.06,27.83
			c-0.38,9.33-0.1,18.7,0.78,27.99c0.49,4.64,1.05,9.28,1.86,13.86c0.39,2.29,0.83,4.58,1.32,6.83c0.23,1.14,0.51,2.25,0.77,3.37
			c0.27,1.09,0.57,2.26,0.85,3.22l0.03,0.1c0.7,2.38-0.66,4.89-3.05,5.59c-2.38,0.7-4.89-0.66-5.59-3.05
			C235.97,483.45,235.96,483.42,235.95,483.41z"/>
	</g>
	<g>
		<path class="st2" d="M267.35,485.33c-1.61-4.27-2.83-8.46-3.98-12.76c-1.12-4.28-2.08-8.6-2.89-12.95
			c-1.63-8.69-2.64-17.5-3.06-26.33c-0.81-17.66,0.91-35.49,5.59-52.58c4.66-17.08,12.31-33.36,22.55-47.79
			c10.21-14.46,22.85-27.11,36.87-37.8c7.01-5.35,14.37-10.23,21.95-14.72c3.8-2.24,7.71-4.34,11.76-6.17
			c2.02-0.92,4.11-1.75,6.16-2.51c2.05-0.8,4.12-1.54,6.2-2.26c16.62-5.8,33.97-9.74,51.59-10.88c8.8-0.59,17.65-0.46,26.43,0.38
			c8.78,0.87,17.49,2.47,25.99,4.83c17.02,4.69,33.13,12.39,47.69,22.28c7.3,4.92,14.19,10.43,20.82,16.16l2.49,2.14
			c0.81,0.7,1.68,1.4,2.51,2.15c1.65,1.48,3.23,3.01,4.79,4.58c3.09,3.14,6.03,6.42,8.84,9.81c11.23,13.56,20.31,28.86,27,45.12
			c6.66,16.28,10.85,33.55,12.4,51.05c1.6,17.49,0.97,35.18-1.89,52.5c-2.89,17.31-8.15,34.26-15.97,49.98
			c-3.91,7.86-8.46,15.39-13.58,22.52c-5.16,7.1-10.85,13.8-17.11,19.95c-12.47,12.34-26.98,22.54-42.56,30.53
			c-7.78,4.03-15.86,7.46-24.08,10.48c-8.24,2.97-16.64,5.49-25.14,7.59c8.49-2.14,16.87-4.7,25.09-7.71
			c8.2-3.06,16.25-6.52,24-10.59c15.53-8.06,29.95-18.3,42.32-30.66c6.21-6.15,11.85-12.87,16.95-19.96
			c5.07-7.12,9.56-14.64,13.41-22.48c7.71-15.69,12.86-32.57,15.65-49.81c2.76-17.24,3.3-34.84,1.63-52.22
			c-1.62-17.37-5.87-34.49-12.55-50.59c-6.71-16.09-15.78-31.2-26.96-44.57c-2.79-3.34-5.72-6.57-8.78-9.66
			c-1.54-1.53-3.11-3.04-4.72-4.47c-0.8-0.72-1.63-1.39-2.49-2.11l-2.5-2.13c-6.64-5.68-13.48-11.09-20.72-15.93
			c-14.45-9.71-30.38-17.23-47.17-21.76c-8.39-2.28-16.97-3.82-25.62-4.63c-8.65-0.78-17.37-0.86-26.03-0.24
			c-17.35,1.21-34.45,5.18-50.84,10.99c-2.05,0.73-4.1,1.47-6.12,2.27c-2.05,0.77-4.03,1.57-5.99,2.47
			c-3.92,1.79-7.72,3.87-11.46,6.09c-7.46,4.47-14.7,9.32-21.58,14.62c-13.76,10.6-26.1,23.08-36.03,37.28
			c-9.96,14.18-17.35,30.12-21.83,46.83c-4.5,16.72-6.1,34.18-5.23,51.48c0.45,8.65,1.48,17.28,3.12,25.79
			c0.81,4.26,1.77,8.48,2.89,12.66c1.12,4.16,2.38,8.36,3.88,12.29l0.02,0.06c0.39,1.03-0.12,2.19-1.15,2.58
			C268.9,486.89,267.75,486.37,267.35,485.33L267.35,485.33z"/>
	</g>
	<path class="st3" d="M261.09,512.29l6.18,11.65v-6.71l7.94-4.94h16.06l1.94,1.76l-11.29,6.53l2.29,2.65l13.41-7.76l15.53,2.65V513
		l5.47-5.12L309.09,492c0,0-5.47-25.41-16.24-22.06c-5.9,1.84-9.74,4.21-12,5.97c-1.83,1.43-2.67,3.77-2.25,6.05
		c0.85,4.51,3.49,12.5,11.65,19.04c1.88,1.59,2.24,3.71,2.24,3.71l-3.35,2.82h-15l-8.12,4.94L261.09,512.29z"/>
	<path class="st4" d="M296.69,469.94l5.34-5.12c0,0,6.53,8.12,7.94,16.24c1.41,8.12-2.65,11.65-2.65,11.65L296.69,469.94z"/>
	<path class="st4" d="M280,480.79l-11.13,5.08c0,0,3.42,8.45,9.89,13.55c6.47,5.1,14.98,1.76,14.98,1.76L280,480.79z"/>
	<ellipse transform="matrix(0.866 -0.5 0.5 0.866 -224.283 210.8469)" class="st3" cx="281.3" cy="523.94" rx="3.62" ry="7.32"/>
	
		<ellipse transform="matrix(0.8913 -0.4534 0.4534 0.8913 -182.0229 179.2933)" class="st3" cx="282.97" cy="469.32" rx="12.43" ry="5.82"/>
	<path class="st5" d="M250.81,399.18c-9.13,0-16.28,4.73-16.28,10.76c0,6.04,7.15,10.76,16.28,10.76c9.13,0,16.28-4.73,16.28-10.76
		C267.09,403.9,259.94,399.18,250.81,399.18z M250.81,414.95c-6.5,0-11.77-2.43-11.77-5.42s5.27-5.42,11.77-5.42
		c6.5,0,11.77,2.43,11.77,5.42S257.3,414.95,250.81,414.95z"/>
	<path class="st5" d="M479.7,258.02c-0.82-7.13-5.08-12.29-9.68-11.76c-4.61,0.53-7.57,6.53-6.75,13.66
		c0.82,7.13,5.08,12.29,9.68,11.76C477.56,271.15,480.52,265.15,479.7,258.02z M467.66,259.41c-0.59-5.07,0.79-9.4,3.07-9.66
		c2.28-0.26,4.61,3.63,5.2,8.71c0.59,5.07-0.79,9.4-3.07,9.66C470.57,268.38,468.24,264.49,467.66,259.41z"/>
	<path class="st5" d="M579.29,339.2c4.65-3.87,6.21-9.4,3.56-12.59c-2.65-3.19-8.38-2.65-13.03,1.23c-4.65,3.87-6.21,9.4-3.56,12.59
		C568.91,343.62,574.64,343.08,579.29,339.2z M572.35,330.88c3.31-2.76,7.06-3.71,8.38-2.13c1.32,1.58-0.3,5.1-3.61,7.85
		s-7.06,3.71-8.38,2.13S569.04,333.63,572.35,330.88z"/>
	<path class="st5" d="M604.36,444.34c5.28-0.34,9.25-3.23,9.03-6.56c-0.22-3.33-4.53-5.68-9.81-5.33c-5.28,0.34-9.25,3.23-9.03,6.56
		C594.77,442.35,599.08,444.69,604.36,444.34z M603.79,435.63c3.76-0.25,6.9,0.9,7,2.55c0.11,1.65-2.85,3.19-6.61,3.44
		c-3.76,0.25-6.9-0.9-7-2.55C597.07,437.41,600.03,435.87,603.79,435.63z"/>
	<path class="st5" d="M546.46,571.49c2.77,1.46,5.74,1.08,6.75-0.85c1.02-1.93-0.36-4.59-3.13-6.04c-2.77-1.46-5.74-1.08-6.75,0.85
		C542.31,567.38,543.69,570.03,546.46,571.49z M549.11,566.44c1.97,1.04,3.16,2.65,2.66,3.61c-0.5,0.96-2.51,0.89-4.48-0.14
		c-1.97-1.04-3.16-2.65-2.66-3.61C545.13,565.34,547.14,565.4,549.11,566.44z"/>
	<path class="st5" d="M339.88,275.2c-4.47-6.17-11.06-8.76-14.99-5.91c-3.93,2.85-3.51,9.92,0.96,16.08
		c4.47,6.17,11.06,8.76,14.99,5.91C344.78,288.43,344.36,281.37,339.88,275.2z M329.61,282.65c-3.18-4.39-4.18-9.09-2.23-10.51
		c1.95-1.41,6.11,1,9.29,5.39s4.18,9.09,2.23,10.51C336.95,289.46,332.79,287.04,329.61,282.65z"/>
	<path class="st5" d="M474.96,340.59c1,5.01,2.03,10.13,3.07,15.33c10.38,3.3,20.48,7.65,30.1,13.08
		c11.72,6.61,22.31,14.63,30.64,25.33c10.98,14.09,15.63,30.07,14.17,47.86c-1.08,13.16-5.26,25.41-10.95,37.21
		c-0.81,1.67-1.66,3.33-2.41,4.83c2.55,2.72,5.22,5.25,7.51,8.09c5.7,7.05,7.95,15.23,7.22,24.23c-0.18,2.25-0.44,4.56-1.12,6.7
		c-1.7,5.36-5.61,7.4-11.09,6.1c-7.72-1.83-14.82-5.14-21.61-9.12c-3.4-1.99-6.69-4.19-10-6.34c-0.78-0.51-1.35-0.63-2.24-0.12
		c-12.27,7.11-25.56,10.69-39.68,11.34c-14.4,0.67-28.45-1.51-42.27-5.37c-4.87-1.36-9.64-3.11-14.52-4.42
		c-4.17-1.12-8.46-1.77-12.65-2.8c-12.45-3.03-24.34-7.41-34.99-14.73c-0.51-0.35-1.19-0.47-1.79-0.68
		c-2.49-0.86-5.15-1.41-7.44-2.64c-4.62-2.47-6.28-6.56-5.39-11.74c0.88-5.17,3.48-9.38,7.17-12.94c2.8-2.71,5.79-5.23,8.6-7.74
		c-1.22-1.29-2.45-2.73-3.81-4.03c-6.2-5.94-11.91-12.29-16.24-19.76c-5.05-8.71-7.51-18.04-6.52-28.18
		c0.38-3.93,2.64-6.34,6.23-7.38c6.45-1.87,12.91-3.75,19.46-5.17c8.86-1.93,17.85-1.74,26.79-0.45c5,0.72,10.02,1.6,14.88,2.97
		c6.67,1.87,13.26,4.09,19.76,6.5c5.91,2.19,11.61,4.96,17.5,7.23c6,2.31,12.22,3.22,18.61,1.69c12.7-3.03,19.3-15.11,15.03-27.46
		c-2.14-6.19-6.19-10.95-11.26-14.91c-0.42-0.33-1.3-0.25-1.92-0.11c-5.9,1.3-11.74,2.89-17.68,3.94
		c-14.59,2.6-29.13,2.69-43.48-1.65c-1.13-0.34-2.26-0.88-3.2-1.59c-1.4-1.04-1.44-2.67-0.01-3.63c1.72-1.15,3.63-2.03,5.52-2.91
		c11.23-5.21,21.51-11.95,31.32-19.45c0.3-0.23,0.59-0.46,0.89-0.67c0.05-0.04,0.17,0.01,0.36,0.04
		c-5.01,5.11-10.03,10.1-15.71,14.38c-5.64,4.24-11.89,7.43-18.35,10.27c0.05,0.2,0.1,0.4,0.15,0.6c0.52,0.23,1.02,0.54,1.57,0.67
		c6.99,1.63,14.08,2,21.21,1.57c11.22-0.68,22.18-2.91,33.06-5.61c0.22-0.05,0.43-0.15,0.64-0.22c-0.03-0.1-0.04-0.14-0.06-0.18
		c-1.08-1.74-2.44-1.98-4.52-1.63c-9.21,1.52-18.46,2.78-27.7,4.07c-3.44,0.48-6.91,0.8-10.4,0.98c6.28-1.6,12.59-3.06,18.81-4.84
		c6.28-1.8,12.47-3.91,18.63-6.18c-8.71-0.4-17.29,0.52-25.89,1.34c8.16-2.55,16.5-4.25,24.98-5.53
		c-5.32-2.45-11.04-3.31-16.65-4.77c2.21,0.12,4.43,0.19,6.64,0.36c2.22,0.17,4.45,0.36,6.66,0.64c2.25,0.29,4.49,0.7,7.07,1.11
		c-4.21-3.29-8.82-5.4-13.13-7.98c0.06-0.14,0.11-0.27,0.17-0.41c4.33,1.64,8.7,3.17,12.96,4.96c2.3,0.97,4.39,2.41,6.62,3.55
		c0.64,0.33,1.44,0.34,2.17,0.49c0.08-0.12,0.16-0.24,0.24-0.35c-0.78-1.6-1.49-3.24-2.35-4.8c-1.05-1.91-2.19-3.78-3.38-5.61
		c-0.25-0.39-0.96-0.75-1.41-0.69c-12.25,1.44-24.41,0.99-36.47-1.6c-1.21-0.26-2.42-0.69-3.5-1.28c-1.27-0.7-1.49-1.99-0.55-3.06
		c0.83-0.94,1.89-1.68,3.03-2.67c0,0.45,0.03,0.55,0,0.6c-1.89,2.47-1.6,3.66,1.49,4.34c3.25,0.72,6.58,1.17,9.91,1.47
		c8.08,0.72,16.17,0.6,24.22-0.27c11.63-1.26,22.98-3.84,34.02-7.73c1.31-0.46,2.63-0.93,3.87-1.55c1.27-0.64,1.29-1.56,0-2.06
		c-1.67-0.65-3.44-1.09-5.2-1.43c-1.9-0.37-3.84-0.52-5.74-0.91c3.16-0.31,6.31-0.19,9.4,0.55c1.53,0.37,3.04,0.85,4.5,1.42
		c1.75,0.68,1.97,2.04,0.35,2.9c-2.36,1.26-4.85,2.34-7.38,3.22C485.94,337.09,480.37,338.83,474.96,340.59z M485,389.97
		c0.57-0.94,1.15-1.87,1.7-2.82c1.84-3.19,3.26-6.69,6.77-9.11c-1.39-1.9-2.61-3.94-4.19-5.66c-4.91-5.34-11.21-8.48-17.92-10.89
		c-2.44-0.88-4.89-1.81-7.58-1.46c-2.57,0.34-3.61,2.15-2.27,4.37c0.92,1.52,2.16,2.91,3.47,4.12c5.46,5.05,10.5,10.4,13.7,17.24
		c1.66,3.55,2.67,7.28,3.23,11.2c0.38-0.54,0.67-1.09,0.91-1.66c0.75-1.79,1.48-3.58,2.22-5.37L485,389.97z M508.78,393.81
		c0.47-0.44,0.92-0.89,1.4-1.32c2.28-2.05,4.89-3.59,8.01-3.17c1.9,0.25,2.82-0.88,4.3-1.55c-4.89-3.94-9.74-2.48-14.71-0.73
		c1.38-1.3,2.75-2.61,4.37-3.42c1.59-0.79,3.43-1.06,5.16-1.56c-1.85-2.28-4.34-3.77-7.4-3.53c-2.81,0.23-5.58,0.99-8.22,1.49
		c0.92-0.78,1.97-1.85,3.18-2.68c3.48-2.39,7.58-2.43,10.31,0.11c1.25,1.16,2,2.85,3,4.28c0.3,0.43,0.61,0.94,1.05,1.15
		c1.74,0.82,3.09,2.03,4.12,3.64c0.19,0.3,0.69,0.58,1.05,0.57c1.09-0.02,2.17-0.18,3.26-0.29c0.1-0.09,0.21-0.18,0.31-0.27
		c-0.29-0.14-0.63-0.22-0.85-0.43c-9.83-9.32-21.23-16.06-33.92-20.66c-2.22-0.81-4.49-1.51-6.78-2.12
		c-0.94-0.25-1.97-0.13-2.96-0.18c-0.05,0.2-0.1,0.41-0.15,0.61c0.55,0.37,1.07,0.78,1.65,1.1c0.94,0.51,1.95,0.89,2.86,1.44
		c6.54,3.92,10.37,9.85,12.39,17.04c2.39,8.53,1.6,16.77-2.64,24.56c-3.98,7.31-10.35,11.8-18.1,14.35
		c-4.66,1.53-9.56,2.34-13.99,4.59c-0.67,0.34-1.38,0.62-2.26,1c2.33,2.3,4.54,4.36,6.6,6.56c4.6,4.9,8.8,10.11,11.42,16.39
		c2.25,5.41,2.89,10.91,1.01,16.6c-2,6.01-5.99,10.53-10.69,14.52c-5.74,4.88-12.41,8.14-19.42,10.75
		c-13.2,4.9-26.97,7.23-40.87,8.96c-1.81,0.22-3.61,0.43-5.73,0.68c0.67,0.46,1.04,0.75,1.43,0.97c4.16,2.36,8.26,4.84,12.51,7.03
		c10.94,5.63,22.44,9.61,34.71,11.12c15.94,1.96,31.1-0.72,45.47-7.87c0.62-0.31,1.24-0.63,1.86-0.96c0.6-0.32,1.2-0.66,1.8-0.99
		c-9.47,3.41-19.08,5.92-29.11,6.77c-12.65,1.06-26.05-2.09-29.55-3.97c0.5,0.05,0.86,0.09,1.23,0.11
		c6.41,0.33,12.81,0.92,19.22,0.94c9.4,0.03,18.64-1.35,27.49-4.67c3.1-1.16,6.08-2.65,9.02-3.95c-4.77-4.63-9.32-9.06-13.9-13.51
		c-14.48,8.08-34.62,7.63-47.96,6.78c3.38-0.35,6.48-0.56,9.54-1.03c5.5-0.85,11.01-1.7,16.45-2.86c2.34-0.5,4.51-1.79,6.88-2.77
		c-1.48-1.74-2.68-3.16-3.95-4.67c0.38-0.13,0.43-0.16,0.46-0.15c0.39,0.14,0.79,0.28,1.18,0.42c3.84,1.36,7.78,1.93,11.79,1.1
		c1.7-0.35,3.44-0.93,4.94-1.78c4.47-2.54,5.34-7.25,2.32-12.02c-0.98-1.54-2.19-2.94-3.29-4.41c2.05,0.59,4.02,1.37,5.86,2.38
		c1.71,0.94,3.03,2.42,3.47,4.36c0.27,1.19,0.79,1.31,1.82,1.27c5.76-0.19,11.51-0.3,17.27-0.5c0.42-0.01,0.98-0.45,1.21-0.85
		c2.64-4.48,2.29-9.31-1.03-13.36c-1.31-1.6-2.81-3.03-4.31-4.64c3.81,1.08,7.2,2.67,8.98,6.32c2.49,5.1-0.17,8.94-3.55,12.41
		c5.29,0.54,10.46,1.09,15.63,1.56c0.41,0.04,1.02-0.35,1.28-0.72c4.74-6.71,8.74-13.82,11.64-21.53
		c6.48-17.26,6.56-34.34-1.48-51.18c-2.66-5.58-5.92-10.75-10.43-15.05c-1.84-1.76-4.08-2.55-6.58-2.63
		c-0.38-0.01-0.76,0.27-1.22,0.44c-0.81,0-1.79,0-3.04,0c2.84,2.92,4.09,5.09,4.24,7.19C521.11,391.41,517.86,390.76,508.78,393.81z
		 M380.42,498.63c0.13-0.01,0.25-0.02,0.38-0.02c7.71-0.02,15.44,0.2,23.14-0.15c6.62-0.3,13.25-1.06,19.82-1.96
		c11.57-1.59,22.76-4.61,33.21-9.97c5.72-2.94,11.3-6.13,15.91-10.7c5.23-5.19,7.52-11.41,5.96-18.78
		c-0.91-4.32-3.07-8.04-5.63-11.57c-6.62-9.1-14.87-16.47-24.24-22.61c-4.09-2.68-8.37-5.07-12.56-7.59
		c-0.08,0.1-0.15,0.21-0.23,0.31c5.58,4.62,9.59,10.18,10.53,17.83c1.2-1.14,2.13-2.18,3.21-3.01c0.64-0.49,1.53-0.65,2.31-0.95
		c0.14,0.83,0.51,1.7,0.36,2.47c-0.85,4.4-2.72,8.28-6.12,11.31c-4.6,4.11-10.2,5.42-16.13,5.5c-6.65,0.09-13.02-1.4-19.05-4.14
		c-2.74-1.24-5.31-2.85-7.95-4.3c0.07-0.13,0.14-0.27,0.21-0.4c1.98,0.61,3.95,1.28,5.95,1.83c2.06,0.56,4.13,1.09,6.23,1.49
		c2,0.38,4.04,0.58,6.06,0.86c-0.35-0.56-0.78-0.83-1.2-1.1c-0.47-0.3-0.95-0.59-1.39-0.93c-5.88-4.37-10.17-9.81-11.33-17.24
		c-1.01-6.47,1.79-13.06,10.03-14.49c1.83-0.32,3.71-0.3,5.57-0.43c-22.52-8.42-45.53-11.83-69.44-7.02
		c2.37,2.07,4.69,3.93,6.81,5.99c2.15,2.09,3.92,4.52,5.2,7.28c-0.46-0.23-0.81-0.56-1.17-0.89c-2.18-2.02-4.33-4.09-6.55-6.05
		c-2.02-1.78-4.07-3.56-6.76-4.3c-1.92-0.53-3.71-0.28-5.47,0.98c0.55,0.4,0.95,0.7,1.36,0.99c4.3,3.05,8.33,6.39,11.86,10.33
		c4.09,4.57,8.17,9.16,12.38,13.62c8.07,8.55,16.72,16.41,27.06,22.21c8.95,5.02,18.51,7.85,28.8,8.1c0.82,0.02,1.67-0.08,2.48-0.27
		c1.05-0.25,1.3-0.98,0.78-1.91c-0.22-0.4-0.52-0.77-0.83-1.11c-2.39-2.56-5.53-3.69-8.81-4.5c-9.67-2.39-19.14-5.34-27.99-10.04
		c-7.49-3.97-14.07-9.03-18.88-16.15c-0.15-0.22-0.23-0.48-0.21-0.46c3.45,2.8,6.9,5.95,10.69,8.6c10.5,7.34,22.31,11.72,34.7,14.68
		c3.98,0.95,7.92,1.97,11.57,3.91c2.18,1.16,3.83,2.76,4.7,5.11c0.88,2.41,0.17,4.18-2.28,4.95c-1.57,0.49-3.28,0.53-4.91,0.88
		c-0.76,0.16-1.62,0.42-2.16,0.93c-8.29,7.73-17.65,13.75-28.18,17.93c-12.29,4.88-25.11,6.96-38.28,7.08c-0.97,0.01-1.94,0-2.91,0
		c4.06,2.05,8.34,2.89,12.73,2.76c4.31-0.13,8.64-0.39,12.91-1c4.24-0.6,8.42-1.7,12.62-2.58c-8.09,4.51-17.03,6.02-26.16,7.44
		c7.56,5.56,30.55,14.06,38.44,14.18C398.69,506.5,389.56,502.63,380.42,498.63z M498.59,497.1c2.23,3.51,4.99,6.55,8.01,9.34
		c7.4,6.83,16.02,11.73,25.21,15.68c3.36,1.44,6.78,2.86,10.3,3.82c4.8,1.29,8.27-1.19,8.47-5.91c0.15-3.65,0.17-7.36-0.27-10.97
		c-1.38-11.13-7.4-18.83-17.87-22.9c-9.94-3.87-20.28-3.61-30.66-2.68c-0.15,0.01-0.29,0.17-0.67,0.4
		c11.89,4.2,23.75,7.47,36.13,8.64c-10.94,0.86-21.53-1.33-32.11-3.63c12.36,5.24,24.89,9.9,38.07,12.59
		c-13.68-0.72-26.55-4.63-39.11-9.84c12.89,9.04,26.8,15.95,41.82,20.64c-16.1-2.11-30.25-9.17-44-17.32
		c3.95,3.54,7.88,7.09,12.11,10.24c4.2,3.13,8.6,6.03,13.12,8.69c4.49,2.64,9.24,4.85,14.19,7.41
		C524.83,516.73,511.44,507.41,498.59,497.1z M384.25,467.49c0.3-0.28,0.51-0.44,0.68-0.64c0.72-0.87,1.99-1.69,1.39-2.94
		c-0.6-1.25-2.06-1.11-3.25-0.92c-6.06,0.98-10.4,4.22-12.83,9.9c-1.77,4.13-1,5.42,3.51,5.19c4.82-0.25,9.62-0.77,14.41-1.36
		c4.3-0.52,8.53-1.51,12.39-3.55c1.87-0.99,3.69-2.19,5.23-3.63c2.6-2.43,1.82-5.07-1.61-5.94c-0.98-0.25-2.05-0.46-3.02-0.33
		c-3.21,0.45-6.43,0.9-9.58,1.66C389.13,465.54,386.79,466.59,384.25,467.49z M425.66,436.55c-1.85,0.57-3.65,0.24-5.33-0.35
		c-1.72-0.59-3.32-1.51-5.04-2.32c3.93,4.44,8.64,7.4,14.58,7.9c3.95,0.33,7.52-0.75,9.81-4.31c2.26-3.53,1.89-7.31,0.4-10.96
		c-2.54-6.24-7.19-10.42-13.45-12.72c-3.62-1.34-7.37-1.62-10.96,0.23c-1.04,0.53-1.91,1.38-2.86,2.08
		c1.33-0.05,2.45-0.39,3.58-0.43c6.49-0.19,13.48,5.42,14.8,11.79c0.5,2.42,0.31,4.68-1.28,6.76c-1.11-2.33-2.51-3.1-3.99-2.29
		C424.36,432.8,424.24,434.44,425.66,436.55z M478.36,409.95c7.33-3.71,11.77-10.09,16.06-16.62c-3.01,7.35-7.41,13.79-12.63,19.71
		c6.24-3.99,10.71-9.6,14.62-15.73c-3.35,8.64-9.29,15.36-16.02,21.51c0.13,0.03,0.23,0.09,0.29,0.06
		c5.05-2.61,9.54-5.96,12.79-10.64c5.39-7.77,5.16-16.1,1.8-24.56c-0.76-1.91-2.15-2.04-3.32-0.31c-1.51,2.22-2.97,4.51-4.16,6.92
		C484.56,396.8,481.49,403.39,478.36,409.95z M341.89,416.5c0,0.64-0.03,0.95,0,1.25c0.68,5.38,2.09,10.56,4.32,15.51
		c4.16,9.26,10.52,16.8,18.23,23.28c1.1,0.93,2.23,1.83,3.41,2.65c0.78,0.55,1.78,1.32,2.58,0.31c0.72-0.92-0.19-1.71-0.83-2.37
		c-0.58-0.6-1.23-1.13-1.85-1.7c-9.82-8.98-17.78-19.32-23.01-31.64C343.78,421.49,342.93,419.14,341.89,416.5z M352.51,483.46
		c3.91-7.29,8.03-10.82,12.64-14.38c1.61-1.25,3.32-2.38,4.91-3.66c0.39-0.31,0.81-1.19,0.65-1.45c-0.28-0.44-0.99-0.7-1.56-0.85
		c-0.35-0.09-0.83,0.11-1.18,0.31c-4.99,2.89-9.5,6.33-12.74,11.19C353.55,477.17,352.47,479.95,352.51,483.46z M452.93,420.39
		c1.27,0.66,2.68,1.16,3.78,2.03c1.94,1.54,3.78,1.29,5.9,0.43c4.84-1.96,8.37-5.3,10.86-9.84
		C467.35,417.51,460.47,419.74,452.93,420.39z M471.02,341.3c-2.37,0.46-4.55,0.88-6.53,1.26c2.17,3.76,4.33,7.41,6.38,11.13
		c0.59,1.07,1.27,1.29,2.47,0.93c-0.49-3.26-0.95-6.47-1.47-9.67C471.68,343.78,471.33,342.62,471.02,341.3z M418.57,422.62
		c0.01-1.78-1.39-3.16-3.18-3.15c-1.72,0.01-3.11,1.35-3.18,3.05c-0.06,1.71,1.39,3.2,3.15,3.24
		C417.12,425.82,418.56,424.4,418.57,422.62z"/>
	<path class="st6" d="M430.68,332.63c2.62,0.47,5.29,0.97,7.98,1.43c2.11,0.36,2.11,0.34,2.86-1.67c2.85-7.62,4.03-15.55,4.13-23.64
		c0.07-5.57-0.21-11.15-0.34-16.73c-0.04-1.68-0.31-3.57,1.59-4.38c1.9-0.82,3.41,0.37,4.7,1.63c4.58,4.49,8.32,9.62,11.36,15.26
		c4.34,8.05,6.94,16.69,8.67,25.62c0.08,0.41,0.16,0.82,0.26,1.23c0.03,0.13,0.11,0.25,0.18,0.4c0.67-0.14,1.32-0.28,2.27-0.48
		C460.93,338.99,442.84,339.33,430.68,332.63z"/>
	<path class="st5" d="M451.35,293.95c-0.12,0.09-0.24,0.19-0.36,0.28c0.15,0.28,0.31,0.55,0.45,0.83
		c3.62,7.58,7.35,15.11,10.81,22.77c1.79,3.97,3.09,8.16,4.6,12.26c0.32,0.86,0.82,1.6,1.8,1.24c0.25-0.09,0.35-1.19,0.19-1.73
		c-2.29-7.69-5.48-15.01-9.38-22C456.86,302.98,454.05,298.49,451.35,293.95z"/>
	<path class="st5" d="M450.22,305.61c-0.12,0.1-0.25,0.2-0.37,0.3c0.04,0.12,0.07,0.26,0.14,0.37c4.66,7.87,9.05,15.88,11.97,24.59
		c0.27,0.81,0.8,1.33,1.68,0.99c0.89-0.34,0.92-1.03,0.53-1.83c-1.67-3.47-3.09-7.07-5.02-10.38
		C456.36,314.87,453.21,310.28,450.22,305.61z"/>
	<path class="st5" d="M449.84,316.73c-0.1,0.06-0.19,0.12-0.29,0.18c0.05,0.16,0.07,0.34,0.14,0.48c2.47,4.72,4.93,9.45,7.45,14.14
		c0.23,0.42,0.88,0.62,1.34,0.92c0.11-0.56,0.5-1.26,0.3-1.67c-1.25-2.53-2.48-5.09-4-7.46
		C453.31,321.01,451.5,318.92,449.84,316.73z"/>
	<path class="st5" d="M446.79,325.64c1.52,2.15,3,4.33,4.59,6.43c0.34,0.45,1.09,0.58,1.65,0.86c-0.01-0.67,0.2-1.46-0.07-1.99
		C451.62,328.39,449.21,326.99,446.79,325.64z"/>
	<path class="st5" d="M480.16,344.87c5.29-1.35,10.62-2.53,15.84-4.1c4.02-1.21,7.94-2.82,11.82-4.45c1.23-0.52,2.36-1.51,3.28-2.52
		c1.54-1.68,1.69-3.5,0.37-5.35c-1-1.41-2.35-2.57-3.57-3.83c-0.31-0.32-0.7-0.57-1.05-0.86c0.06-0.1,0.11-0.2,0.17-0.3
		c0.95,0.46,1.97,0.83,2.85,1.41c1.69,1.11,3.49,2.16,4.91,3.57c2.01,2,2,4.39-0.21,6.2c-2.08,1.71-4.45,3.23-6.93,4.27
		c-8.46,3.55-17.39,5.23-26.48,6.11c-0.32,0.03-0.64,0-0.97,0C480.18,344.97,480.17,344.92,480.16,344.87z"/>
	<path class="st5" d="M346.66,383.51c3.52-0.01,6.3,2.74,6.31,6.25c0.01,3.44-2.86,6.27-6.34,6.26c-3.34-0.01-6.17-2.89-6.17-6.28
		C340.47,386.32,343.26,383.52,346.66,383.51z M341.59,388.52c0.03,1.93,1.72,3.69,3.51,3.65c1.91-0.05,3.76-1.85,3.72-3.63
		c-0.05-2.22-1.57-3.69-3.73-3.63C343.15,384.96,341.56,386.6,341.59,388.52z"/>
	<path class="st5" d="M308.14,401.43c3.39-0.04,6.25,2.75,6.29,6.14c0.05,3.49-2.75,6.38-6.18,6.39c-3.41,0-6.26-2.77-6.3-6.14
		C301.91,404.35,304.7,401.46,308.14,401.43z M310.34,407.05c0.02-1.94-1.55-3.61-3.42-3.65c-2.02-0.04-3.65,1.52-3.68,3.54
		c-0.03,2.02,1.59,3.66,3.57,3.65C308.77,410.57,310.32,409.02,310.34,407.05z"/>
	<path class="st5" d="M289.91,406.17c-0.05,2.79-2.39,5.07-5.11,4.98c-2.81-0.09-5.02-2.38-4.96-5.15c0.06-2.89,2.32-5,5.26-4.93
		C287.81,401.14,289.96,403.41,289.91,406.17z M283.88,402.48c-1.51,0.03-2.68,1.25-2.64,2.78c0.04,1.49,1.31,2.7,2.8,2.66
		c1.5-0.05,2.71-1.33,2.66-2.82C286.65,403.56,285.45,402.45,283.88,402.48z"/>
	<path class="st5" d="M328.82,424.4c-0.06,2.61-1.96,4.43-4.57,4.38c-2.44-0.04-4.52-2.22-4.41-4.61c0.11-2.4,2.22-4.4,4.58-4.34
		C327,419.89,328.88,421.85,328.82,424.4z M325.34,423.11c-0.01-1.25-1.06-2.33-2.28-2.34c-1.18-0.01-2.34,1.12-2.36,2.3
		c-0.02,1.3,1.05,2.36,2.4,2.36C324.37,425.42,325.35,424.41,325.34,423.11z"/>
	<path class="st5" d="M312.02,438.05c0,2-1.56,3.56-3.53,3.52c-1.89-0.04-3.45-1.62-3.45-3.5c-0.01-1.94,1.63-3.55,3.57-3.52
		C310.53,434.58,312.02,436.11,312.02,438.05z M309.51,437.15c-0.05-1.16-0.61-1.8-1.7-1.88c-0.96-0.07-1.77,0.79-1.75,1.76
		c0.02,0.98,0.83,1.83,1.77,1.75C308.82,438.69,309.41,438.13,309.51,437.15z"/>
	<path class="st5" d="M491.77,458.11c4.77,1.49,9.31,3.47,10.18,9.16c0.67,4.39-1.55,7.85-4.51,10.91c0.91-3.8,1.89-7.61,0.37-11.42
		c-1.62-4.04-5.22-5.57-9.21-6.74c1.75-4.4,3.04-8.84,0.7-13.33c-2.25-4.33-6.41-6.23-10.93-7.89c7.75-0.99,16.68,2.92,15,12.93
		C493.02,453.87,492.33,455.94,491.77,458.11z"/>
	<path class="st5" d="M526.28,430.91c3.96,0.01,7.73,0.3,9.85,4.1c1.83,3.27,0.92,6.53-0.59,9.82c-0.07-7.32-2.68-12.19-11.09-11.67
		c0.07-3.68,0.21-7.33-2.59-10.21c-2.76-2.83-6.35-3.21-9.98-3.47c2.03-1.51,6.93-1.75,9.21-0.68
		C526.34,421.25,526.35,426.02,526.28,430.91z"/>
	<path class="st5" d="M540.93,413.91c-1.18-6.12-4.24-9.64-11.29-10.54c2.1,3.1,2.1,6.38,1.2,9.87
		c-0.84-8.72-6.91-11.08-14.27-11.95c3.79-1.29,7.5-1.82,11.14,0.36c0.42,0.25,1.05,0.2,1.57,0.19c1.47-0.05,2.97-0.36,4.41-0.19
		c4.51,0.52,7.27,3.6,7.41,8.13C541.15,411.14,541,412.53,540.93,413.91z"/>
	<path class="st5" d="M524.95,414.86c4.26-0.01,8.08,0.9,10.83,4.43c0.25,0.32,0.84,0.42,1.29,0.52c1.66,0.39,3.43,0.5,4.98,1.14
		c3.58,1.47,5.22,5.01,4.31,8.96c-0.29,1.24-0.83,2.42-1.43,3.6c0.25-2.85,0.08-5.55-1.62-7.95c-1.64-2.31-3.95-3.66-6.55-4.79
		c0.72,4.77,0.04,7.98-2.35,10.77C536.8,422.71,531.8,418.28,524.95,414.86z"/>
	<path class="st5" d="M502.78,462c1.18-3.93,1.6-7.65-0.12-11.31c-1.67-3.55-4.6-5.95-7.81-8.24c3.88-0.49,8.58,2.03,10.26,5.27
		C507.59,452.47,505.84,458.42,502.78,462z"/>
	<path class="st5" d="M525.85,467.82c5.02-6.38,4.69-10.13-1.53-19.15c3.91,0.95,7.7,5.37,8.1,9.44
		C532.77,461.58,529.85,465.99,525.85,467.82z"/>
	<path class="st5" d="M505.13,406.03c4-2.37,8.15-3.84,12.47-1.24c3.87,2.33,4.46,6.29,4.36,10.5
		C519.4,406.59,512.79,405.41,505.13,406.03z"/>
	<path class="st5" d="M508.42,443.03c4.78-0.12,9.56,2.61,11.11,6.2c1.43,3.32,0.37,8.01-2.77,11.22
		C519.78,451.75,515.23,446.96,508.42,443.03z"/>
	<path class="st5" d="M505.72,438.58c-0.29-8.91-6.32-11.74-13.72-13.21c4.33-1.19,8.54-1.43,12.01,1.87
		C507.41,430.45,506.94,434.48,505.72,438.58z"/>
	<path class="st5" d="M509.68,430.59c4.57-0.36,8.94,0.08,11.72,4.23c2.52,3.75,1.45,7.59-0.54,11.3c0.48-3.65,0.06-7.06-2.4-9.97
		C516.12,433.38,512.92,431.96,509.68,430.59z"/>
	<path class="st5" d="M472.36,453.37c3.79,3.84,4.21,10.05,0.93,14.78c-5.23,7.55-12.47,12.45-21.03,15.35
		c-4.74,1.6-9.68,2.57-14.54,3.82c-0.21,0.05-0.45,0.01-0.97,0.01c3.35-1.27,6.45-2.36,9.48-3.61c7.16-2.96,14.05-6.42,19.67-11.92
		c3.8-3.71,6.48-8.04,6.7-13.53C472.67,456.62,472.44,454.95,472.36,453.37z"/>
	<path class="st5" d="M438.06,492.15c-2.74,0.63-5.48,1.32-8.24,1.89c-6.84,1.41-13.75,2.38-20.74,2.29
		c-3.97-0.05-7.94-0.5-11.9-0.88c-0.7-0.07-1.34-0.67-2.01-1.03c0.65-0.44,1.25-1.11,1.96-1.27c3.85-0.86,7.73-1.56,11.58-2.39
		c7.94-1.7,15.7-4.07,23.36-6.75c0.38-0.13,0.77-0.23,1.18-0.22c-8.73,4.82-18.1,7.91-27.71,10.49
		C416.46,494.58,427.24,493.29,438.06,492.15z"/>
	<path class="st5" d="M485.03,389.94c-1.71-1.59-2.5-3.56-2.58-5.89c-0.03-0.83-0.2-1.74-0.57-2.47c-1.53-2.99-1.49-5.6,0.3-7.68
		c1.31-1.52,3.1-2.09,5.09-2.33c-3.89,2.15-5.04,5.42-4.23,9.82c1.62-2.09,3.58-3.08,5.96-3.33c-0.04,0.1-0.05,0.21-0.1,0.24
		c-4.29,2.23-5.01,5.98-4.18,9.9c0.12,0.58,0.18,1.18,0.27,1.77C485,389.97,485.03,389.94,485.03,389.94z"/>
	<path class="st5" d="M481.36,368c-4.65,2.38-4.7,6.32-3.67,10.66c-1.81-1.92-2.78-4.13-2.05-6.7
		C476.41,369.22,478.75,368.41,481.36,368z"/>
	<rect x="191.27" y="567.18" class="st7" width="448.24" height="106.59"/>
	<text transform="matrix(1 0 0 1 350.0988 594.671)"><tspan x="0" y="0" class="st5 st8 st9">BY THE </tspan><tspan x="-6.32" y="58" class="st5 st8 st10">CREEK</tspan></text>
</g>
<g id="Layer_1">
</g>
</svg>
